<?xml version="1.0" encoding="UTF-8" standalone="no"?>
<!DOCTYPE svg PUBLIC "-//W3C//DTD SVG 1.1//EN"
 "http://www.w3.org/Graphics/SVG/1.1/DTD/svg11.dtd">
<!-- Generated by graphviz version 2.43.0 (0)
 -->
<!-- Title: G Pages: 1 -->
<svg width="291pt" height="260pt"
 viewBox="0.00 0.00 291.27 260.00" xmlns="http://www.w3.org/2000/svg" xmlns:xlink="http://www.w3.org/1999/xlink">
<g id="graph0" class="graph" transform="scale(1 1) rotate(0) translate(4 256)">
<title>G</title>
<polygon fill="white" stroke="transparent" points="-4,4 -4,-256 287.27,-256 287.27,4 -4,4"/>
<!-- A -->
<g id="node1" class="node">
<title>A</title>
<ellipse fill="none" stroke="black" cx="135" cy="-234" rx="27" ry="18"/>
<text text-anchor="middle" x="135" y="-230.3" font-family="Times,serif" font-size="14.00">A 1</text>
</g>
<!-- B -->
<g id="node2" class="node">
<title>B</title>
<ellipse fill="none" stroke="black" cx="32" cy="-162" rx="27" ry="18"/>
<text text-anchor="middle" x="32" y="-158.3" font-family="Times,serif" font-size="14.00">B 2</text>
</g>
<!-- A&#45;&gt;B -->
<g id="edge1" class="edge">
<title>A&#45;&gt;B</title>
<path fill="none" stroke="black" d="M116.59,-220.49C100.47,-209.54 76.87,-193.49 58.69,-181.14"/>
<polygon fill="black" stroke="black" points="60.49,-178.13 50.25,-175.41 56.56,-183.92 60.49,-178.13"/>
</g>
<!-- C -->
<g id="node3" class="node">
<title>C</title>
<ellipse fill="none" stroke="black" cx="104" cy="-162" rx="27" ry="18"/>
<text text-anchor="middle" x="104" y="-158.3" font-family="Times,serif" font-size="14.00">C 3</text>
</g>
<!-- A&#45;&gt;C -->
<g id="edge2" class="edge">
<title>A&#45;&gt;C</title>
<path fill="none" stroke="black" d="M127.65,-216.41C123.99,-208.13 119.47,-197.92 115.36,-188.66"/>
<polygon fill="black" stroke="black" points="118.54,-187.2 111.29,-179.47 112.14,-190.03 118.54,-187.2"/>
</g>
<!-- D -->
<g id="node4" class="node">
<title>D</title>
<ellipse fill="none" stroke="black" cx="230" cy="-162" rx="27" ry="18"/>
<text text-anchor="middle" x="230" y="-158.3" font-family="Times,serif" font-size="14.00">D 5</text>
</g>
<!-- A&#45;&gt;D -->
<g id="edge3" class="edge">
<title>A&#45;&gt;D</title>
<path fill="none" stroke="black" d="M152.42,-220.16C166.93,-209.47 187.79,-194.1 204.23,-181.99"/>
<polygon fill="black" stroke="black" points="206.39,-184.74 212.36,-175.99 202.24,-179.11 206.39,-184.74"/>
</g>
<!-- G -->
<g id="node7" class="node">
<title>G</title>
<ellipse fill="none" stroke="black" cx="171" cy="-90" rx="27" ry="18"/>
<text text-anchor="middle" x="171" y="-86.3" font-family="Times,serif" font-size="14.00">G 4</text>
</g>
<!-- A&#45;&gt;G -->
<g id="edge10" class="edge">
<title>A&#45;&gt;G</title>
<path fill="none" stroke="red" d="M139.27,-216.15C145.44,-191.81 156.91,-146.57 164.24,-117.67"/>
<polygon fill="red" stroke="red" points="167.67,-118.38 166.73,-107.82 160.88,-116.66 167.67,-118.38"/>
</g>
<!-- E -->
<g id="node5" class="node">
<title>E</title>
<ellipse fill="none" stroke="black" cx="27" cy="-90" rx="27" ry="18"/>
<text text-anchor="middle" x="27" y="-86.3" font-family="Times,serif" font-size="14.00">E 7</text>
</g>
<!-- C&#45;&gt;E -->
<g id="edge4" class="edge">
<title>C&#45;&gt;E</title>
<path fill="none" stroke="black" d="M88.42,-146.83C77.39,-136.81 62.41,-123.19 50.01,-111.92"/>
<polygon fill="black" stroke="black" points="52.05,-109.04 42.3,-104.91 47.34,-114.22 52.05,-109.04"/>
</g>
<!-- F -->
<g id="node6" class="node">
<title>F</title>
<ellipse fill="none" stroke="black" cx="99" cy="-90" rx="27" ry="18"/>
<text text-anchor="middle" x="99" y="-86.3" font-family="Times,serif" font-size="14.00">F 8</text>
</g>
<!-- C&#45;&gt;F -->
<g id="edge5" class="edge">
<title>C&#45;&gt;F</title>
<path fill="none" stroke="black" d="M102.76,-143.7C102.21,-135.98 101.55,-126.71 100.94,-118.11"/>
<polygon fill="black" stroke="black" points="104.43,-117.83 100.22,-108.1 97.44,-118.33 104.43,-117.83"/>
</g>
<!-- D&#45;&gt;G -->
<g id="edge6" class="edge">
<title>D&#45;&gt;G</title>
<path fill="none" stroke="black" d="M217.2,-145.81C209.39,-136.55 199.25,-124.52 190.47,-114.09"/>
<polygon fill="black" stroke="black" points="192.9,-111.55 183.78,-106.16 187.55,-116.06 192.9,-111.55"/>
</g>
<!-- H -->
<g id="node8" class="node">
<title>H</title>
<ellipse fill="none" stroke="black" cx="243" cy="-90" rx="27.1" ry="18"/>
<text text-anchor="middle" x="243" y="-86.3" font-family="Times,serif" font-size="14.00">H 9</text>
</g>
<!-- D&#45;&gt;H -->
<g id="edge7" class="edge">
<title>D&#45;&gt;H</title>
<path fill="none" stroke="black" d="M233.15,-144.05C234.58,-136.35 236.31,-127.03 237.92,-118.36"/>
<polygon fill="black" stroke="black" points="241.41,-118.75 239.79,-108.28 234.52,-117.47 241.41,-118.75"/>
</g>
<!-- J -->
<g id="node10" class="node">
<title>J</title>
<ellipse fill="none" stroke="black" cx="235" cy="-18" rx="27" ry="18"/>
<text text-anchor="middle" x="235" y="-14.3" font-family="Times,serif" font-size="14.00">J 6</text>
</g>
<!-- D&#45;&gt;J -->
<g id="edge11" class="edge">
<title>D&#45;&gt;J</title>
<path fill="none" stroke="red" d="M247.62,-147.86C258.95,-138.25 272.7,-124.1 279,-108 284.83,-93.1 284.43,-87.05 279,-72 274.73,-60.17 266.54,-49.11 258.37,-40.19"/>
<polygon fill="red" stroke="red" points="260.79,-37.65 251.3,-32.93 255.77,-42.54 260.79,-37.65"/>
</g>
<!-- I -->
<g id="node9" class="node">
<title>I</title>
<ellipse fill="none" stroke="black" cx="99" cy="-18" rx="28.7" ry="18"/>
<text text-anchor="middle" x="99" y="-14.3" font-family="Times,serif" font-size="14.00">I 10</text>
</g>
<!-- F&#45;&gt;I -->
<g id="edge8" class="edge">
<title>F&#45;&gt;I</title>
<path fill="none" stroke="black" d="M99,-71.7C99,-63.98 99,-54.71 99,-46.11"/>
<polygon fill="black" stroke="black" points="102.5,-46.1 99,-36.1 95.5,-46.1 102.5,-46.1"/>
</g>
<!-- F&#45;&gt;J -->
<g id="edge9" class="edge">
<title>F&#45;&gt;J</title>
<path fill="none" stroke="black" d="M119.66,-78.37C142.42,-66.65 179.24,-47.7 205.15,-34.37"/>
<polygon fill="black" stroke="black" points="206.86,-37.42 214.15,-29.73 203.66,-31.2 206.86,-37.42"/>
</g>
</g>
</svg>
