<?xml version="1.0" encoding="UTF-8" standalone="no"?>
<!DOCTYPE svg PUBLIC "-//W3C//DTD SVG 1.1//EN"
 "http://www.w3.org/Graphics/SVG/1.1/DTD/svg11.dtd">
<!-- Generated by graphviz version 2.43.0 (0)
 -->
<!-- Title: G Pages: 1 -->
<svg width="278pt" height="188pt"
 viewBox="0.00 0.00 278.00 188.00" xmlns="http://www.w3.org/2000/svg" xmlns:xlink="http://www.w3.org/1999/xlink">
<g id="graph0" class="graph" transform="scale(1 1) rotate(0) translate(4 184)">
<title>G</title>
<polygon fill="white" stroke="transparent" points="-4,4 -4,-184 274,-184 274,4 -4,4"/>
<!-- A -->
<g id="node1" class="node">
<title>A</title>
<ellipse fill="none" stroke="black" cx="27" cy="-162" rx="27" ry="18"/>
<text text-anchor="middle" x="27" y="-158.3" font-family="Times,serif" font-size="14.00">A</text>
</g>
<!-- B -->
<g id="node2" class="node">
<title>B</title>
<ellipse fill="none" stroke="black" cx="99" cy="-162" rx="27" ry="18"/>
<text text-anchor="middle" x="99" y="-158.3" font-family="Times,serif" font-size="14.00">B</text>
</g>
<!-- A&#45;&#45;B -->
<g id="edge5" class="edge">
<title>A&#45;&#45;B</title>
<path fill="none" stroke="black" d="M54.22,-162C59.95,-162 66.01,-162 71.74,-162"/>
</g>
<!-- E -->
<g id="node5" class="node">
<title>E</title>
<ellipse fill="none" stroke="black" cx="27" cy="-90" rx="27" ry="18"/>
<text text-anchor="middle" x="27" y="-86.3" font-family="Times,serif" font-size="14.00">E</text>
</g>
<!-- A&#45;&#45;E -->
<g id="edge1" class="edge">
<title>A&#45;&#45;E</title>
<path fill="none" stroke="black" d="M27,-143.83C27,-133 27,-119.29 27,-108.41"/>
</g>
<!-- C -->
<g id="node3" class="node">
<title>C</title>
<ellipse fill="none" stroke="black" cx="171" cy="-162" rx="27" ry="18"/>
<text text-anchor="middle" x="171" y="-158.3" font-family="Times,serif" font-size="14.00">C</text>
</g>
<!-- B&#45;&#45;C -->
<g id="edge6" class="edge">
<title>B&#45;&#45;C</title>
<path fill="none" stroke="black" d="M126.22,-162C131.95,-162 138.01,-162 143.74,-162"/>
</g>
<!-- F -->
<g id="node6" class="node">
<title>F</title>
<ellipse fill="none" stroke="black" cx="99" cy="-90" rx="27" ry="18"/>
<text text-anchor="middle" x="99" y="-86.3" font-family="Times,serif" font-size="14.00">F</text>
</g>
<!-- B&#45;&#45;F -->
<g id="edge3" class="edge">
<title>B&#45;&#45;F</title>
<path fill="none" stroke="black" d="M99,-143.83C99,-133 99,-119.29 99,-108.41"/>
</g>
<!-- D -->
<g id="node4" class="node">
<title>D</title>
<ellipse fill="none" stroke="black" cx="243" cy="-162" rx="27" ry="18"/>
<text text-anchor="middle" x="243" y="-158.3" font-family="Times,serif" font-size="14.00">D</text>
</g>
<!-- C&#45;&#45;D -->
<g id="edge7" class="edge">
<title>C&#45;&#45;D</title>
<path fill="none" stroke="black" d="M198.22,-162C203.95,-162 210.01,-162 215.74,-162"/>
</g>
<!-- E&#45;&#45;F -->
<g id="edge8" class="edge">
<title>E&#45;&#45;F</title>
<path fill="none" stroke="black" d="M54.22,-90C59.95,-90 66.01,-90 71.74,-90"/>
</g>
<!-- I -->
<g id="node7" class="node">
<title>I</title>
<ellipse fill="none" stroke="black" cx="27" cy="-18" rx="27" ry="18"/>
<text text-anchor="middle" x="27" y="-14.3" font-family="Times,serif" font-size="14.00">I</text>
</g>
<!-- E&#45;&#45;I -->
<g id="edge2" class="edge">
<title>E&#45;&#45;I</title>
<path fill="none" stroke="black" d="M27,-71.83C27,-61 27,-47.29 27,-36.41"/>
</g>
<!-- J -->
<g id="node8" class="node">
<title>J</title>
<ellipse fill="none" stroke="black" cx="99" cy="-18" rx="27" ry="18"/>
<text text-anchor="middle" x="99" y="-14.3" font-family="Times,serif" font-size="14.00">J</text>
</g>
<!-- F&#45;&#45;J -->
<g id="edge4" class="edge">
<title>F&#45;&#45;J</title>
<path fill="none" stroke="black" d="M99,-71.83C99,-61 99,-47.29 99,-36.41"/>
</g>
<!-- I&#45;&#45;J -->
<g id="edge9" class="edge">
<title>I&#45;&#45;J</title>
<path fill="none" stroke="black" d="M54.22,-18C59.95,-18 66.01,-18 71.74,-18"/>
</g>
<!-- K -->
<g id="node9" class="node">
<title>K</title>
<ellipse fill="none" stroke="black" cx="171" cy="-18" rx="27" ry="18"/>
<text text-anchor="middle" x="171" y="-14.3" font-family="Times,serif" font-size="14.00">K</text>
</g>
<!-- J&#45;&#45;K -->
<g id="edge10" class="edge">
<title>J&#45;&#45;K</title>
<path fill="none" stroke="black" d="M126.22,-18C131.95,-18 138.01,-18 143.74,-18"/>
</g>
<!-- L -->
<g id="node10" class="node">
<title>L</title>
<ellipse fill="none" stroke="black" cx="243" cy="-18" rx="27" ry="18"/>
<text text-anchor="middle" x="243" y="-14.3" font-family="Times,serif" font-size="14.00">L</text>
</g>
<!-- K&#45;&#45;L -->
<g id="edge11" class="edge">
<title>K&#45;&#45;L</title>
<path fill="none" stroke="black" d="M198.22,-18C203.95,-18 210.01,-18 215.74,-18"/>
</g>
</g>
</svg>
